<svg height="40" version="1.1" width="40" xmlns="http://www.w3.org/2000/svg" style="overflow-x: hidden; overflow-y: hidden; position: absolute; left: 110px; top: 369px; "><desc>Created with Raphaël 2.1.0</desc><defs></defs><path style="stroke-linejoin: round; opacity: 0; " fill="none" stroke="#ffffff" d="M22,4.582H20V7.917H22V4.582ZM25.416,5.748H23V8.918H19V5.747999999999999H13V8.916H9.002V5.748H6.583V27.303H25.415999999999997V5.748ZM24.418,26.303H7.584V13.988H24.416999999999998V26.303ZM12,4.582H10V7.917H12V4.582ZM19.428,23.962H20.996000000000002V16.174H19.719C19.719,16.241,19.698,16.346,19.658,16.486C19.592000000000002,16.718,19.490000000000002,16.905,19.359,17.045C19.166,17.249000000000002,18.916,17.385,18.609,17.453000000000003C18.416,17.496000000000002,18.078000000000003,17.528000000000002,17.595000000000002,17.550000000000004V18.592000000000006H19.427000000000003V23.962ZM13.673,22.909C13.184,22.909,12.846,22.721,12.66,22.345C12.559,22.142,12.51,21.884,12.51,21.572H11.006C11.031,22.192,11.156,22.692999999999998,11.382,23.076C11.811,23.797,12.576,24.156,13.677999999999999,24.156C14.572999999999999,24.156,15.247,23.906,15.703999999999999,23.407C16.159,22.907,16.387999999999998,22.328,16.387999999999998,21.67C16.387999999999998,21.043000000000003,16.192999999999998,20.549000000000003,15.801999999999998,20.188000000000002C15.540999999999999,19.948000000000004,15.340999999999998,19.828000000000003,15.199999999999998,19.828000000000003C15.386999999999997,19.757,15.564999999999998,19.622000000000003,15.736999999999998,19.425000000000004C16.008999999999997,19.111000000000004,16.145,18.724000000000004,16.145,18.265000000000004C16.145,17.618000000000006,15.917,17.101000000000003,15.461,16.716000000000005C15.005,16.330000000000005,14.405000000000001,16.138000000000005,13.661,16.138000000000005C13.261,16.138000000000005,12.923,16.187000000000005,12.647,16.284000000000006C12.371,16.381000000000007,12.133000000000001,16.520000000000007,11.933,16.703000000000007C11.664,16.961000000000006,11.468,17.242000000000008,11.342,17.546000000000006C11.225,17.894000000000005,11.158000000000001,18.261000000000006,11.144,18.648000000000007H12.573C12.566,18.264000000000006,12.647,17.959000000000007,12.817,17.729000000000006C12.986,17.500000000000007,13.252,17.385000000000005,13.612,17.385000000000005C13.926,17.385000000000005,14.171,17.479000000000006,14.343,17.664000000000005C14.517,17.851000000000006,14.603,18.092000000000006,14.603,18.390000000000004C14.603,18.848000000000003,14.434,19.153000000000006,14.094999999999999,19.303000000000004C13.899,19.393000000000004,13.552,19.441000000000006,13.056,19.448000000000004V20.544000000000004C13.562999999999999,20.544000000000004,13.934,20.593000000000004,14.17,20.690000000000005C14.584,20.862000000000005,14.791,21.204000000000004,14.791,21.716000000000005C14.791,22.103000000000005,14.679,22.399000000000004,14.456,22.605000000000004C14.234,22.807,13.973,22.909,13.673,22.909Z" stroke-width="3" stroke-linejoin="round" opacity="0" transform="matrix(1,0,0,1,4,4)"></path><path style="" fill="#333333" stroke="none" d="M22,4.582H20V7.917H22V4.582ZM25.416,5.748H23V8.918H19V5.747999999999999H13V8.916H9.002V5.748H6.583V27.303H25.415999999999997V5.748ZM24.418,26.303H7.584V13.988H24.416999999999998V26.303ZM12,4.582H10V7.917H12V4.582ZM19.428,23.962H20.996000000000002V16.174H19.719C19.719,16.241,19.698,16.346,19.658,16.486C19.592000000000002,16.718,19.490000000000002,16.905,19.359,17.045C19.166,17.249000000000002,18.916,17.385,18.609,17.453000000000003C18.416,17.496000000000002,18.078000000000003,17.528000000000002,17.595000000000002,17.550000000000004V18.592000000000006H19.427000000000003V23.962ZM13.673,22.909C13.184,22.909,12.846,22.721,12.66,22.345C12.559,22.142,12.51,21.884,12.51,21.572H11.006C11.031,22.192,11.156,22.692999999999998,11.382,23.076C11.811,23.797,12.576,24.156,13.677999999999999,24.156C14.572999999999999,24.156,15.247,23.906,15.703999999999999,23.407C16.159,22.907,16.387999999999998,22.328,16.387999999999998,21.67C16.387999999999998,21.043000000000003,16.192999999999998,20.549000000000003,15.801999999999998,20.188000000000002C15.540999999999999,19.948000000000004,15.340999999999998,19.828000000000003,15.199999999999998,19.828000000000003C15.386999999999997,19.757,15.564999999999998,19.622000000000003,15.736999999999998,19.425000000000004C16.008999999999997,19.111000000000004,16.145,18.724000000000004,16.145,18.265000000000004C16.145,17.618000000000006,15.917,17.101000000000003,15.461,16.716000000000005C15.005,16.330000000000005,14.405000000000001,16.138000000000005,13.661,16.138000000000005C13.261,16.138000000000005,12.923,16.187000000000005,12.647,16.284000000000006C12.371,16.381000000000007,12.133000000000001,16.520000000000007,11.933,16.703000000000007C11.664,16.961000000000006,11.468,17.242000000000008,11.342,17.546000000000006C11.225,17.894000000000005,11.158000000000001,18.261000000000006,11.144,18.648000000000007H12.573C12.566,18.264000000000006,12.647,17.959000000000007,12.817,17.729000000000006C12.986,17.500000000000007,13.252,17.385000000000005,13.612,17.385000000000005C13.926,17.385000000000005,14.171,17.479000000000006,14.343,17.664000000000005C14.517,17.851000000000006,14.603,18.092000000000006,14.603,18.390000000000004C14.603,18.848000000000003,14.434,19.153000000000006,14.094999999999999,19.303000000000004C13.899,19.393000000000004,13.552,19.441000000000006,13.056,19.448000000000004V20.544000000000004C13.562999999999999,20.544000000000004,13.934,20.593000000000004,14.17,20.690000000000005C14.584,20.862000000000005,14.791,21.204000000000004,14.791,21.716000000000005C14.791,22.103000000000005,14.679,22.399000000000004,14.456,22.605000000000004C14.234,22.807,13.973,22.909,13.673,22.909Z" transform="matrix(1,0,0,1,4,4)"></path><rect x="0" y="0" width="32" height="32" r="0" rx="0" ry="0" fill="#000000" stroke="#000" style="opacity: 0; " opacity="0"></rect></svg>