<svg height="40" version="1.1" width="40" xmlns="http://www.w3.org/2000/svg" style="overflow-x: hidden; overflow-y: hidden; position: absolute; left: 147px; top: 184px; "><desc>Created with Raphaël 2.1.0</desc><defs></defs><path style="stroke-linejoin: round; opacity: 0; " fill="none" stroke="#ffffff" d="M23.024,5.673C21.28,3.979,19.399,2.622,17.856,2.437C17.772000000000002,2.425,17.685000000000002,2.4179999999999997,17.593,2.416H7.438C7.276,2.416,7.116,2.479,7.002,2.596C6.889,2.71,6.822,2.87,6.822,3.033V28.783C6.822,28.945,6.885,29.1,7.002,29.218C7.119,29.334,7.273,29.397,7.438,29.397H25.802C25.964,29.397,26.119,29.334999999999997,26.236,29.218C26.353,29.101,26.418,28.946,26.418,28.783V11.648C26.382,9.659,24.824,7.49,23.024,5.673ZM25.184,28.164H8.052V3.646H17.594V3.6479999999999997C18.01,3.6229999999999998,18.369,4.034,18.644000000000002,4.974C18.894000000000002,5.869,18.957,7.036,18.956000000000003,7.845000000000001C18.958000000000002,8.438,18.929000000000002,8.836,18.929000000000002,8.836L18.880000000000003,9.488L19.536,9.495C19.539,9.495,21.052,9.513,22.536,9.85C23.962,10.158,25.077,10.772,25.181,11.466999999999999C25.185000000000002,11.528999999999998,25.186,11.591,25.185000000000002,11.649V28.164Z" stroke-width="3" stroke-linejoin="round" opacity="0" transform="matrix(1,0,0,1,4,4)"></path><path style="" fill="#333333" stroke="none" d="M23.024,5.673C21.28,3.979,19.399,2.622,17.856,2.437C17.772000000000002,2.425,17.685000000000002,2.4179999999999997,17.593,2.416H7.438C7.276,2.416,7.116,2.479,7.002,2.596C6.889,2.71,6.822,2.87,6.822,3.033V28.783C6.822,28.945,6.885,29.1,7.002,29.218C7.119,29.334,7.273,29.397,7.438,29.397H25.802C25.964,29.397,26.119,29.334999999999997,26.236,29.218C26.353,29.101,26.418,28.946,26.418,28.783V11.648C26.382,9.659,24.824,7.49,23.024,5.673ZM25.184,28.164H8.052V3.646H17.594V3.6479999999999997C18.01,3.6229999999999998,18.369,4.034,18.644000000000002,4.974C18.894000000000002,5.869,18.957,7.036,18.956000000000003,7.845000000000001C18.958000000000002,8.438,18.929000000000002,8.836,18.929000000000002,8.836L18.880000000000003,9.488L19.536,9.495C19.539,9.495,21.052,9.513,22.536,9.85C23.962,10.158,25.077,10.772,25.181,11.466999999999999C25.185000000000002,11.528999999999998,25.186,11.591,25.185000000000002,11.649V28.164Z" transform="matrix(1,0,0,1,4,4)"></path><rect x="0" y="0" width="32" height="32" r="0" rx="0" ry="0" fill="#000000" stroke="#000" style="opacity: 0; " opacity="0"></rect></svg>