<svg height="40" version="1.1" width="40" xmlns="http://www.w3.org/2000/svg" style="overflow-x: hidden; overflow-y: hidden; position: absolute; left: 110px; top: 221px; "><desc>Created with Raphaël 2.1.0</desc><defs></defs><path style="stroke-linejoin: round; opacity: 0; " fill="none" stroke="#ffffff" d="M2.5,4.833V27.167H29.5V4.833H2.5ZM25.25,25.25H6.75V6.75H25.25V25.25ZM11.25,14C12.676,14,13.833,12.843,13.833,11.417C13.833,9.99,12.676,8.834,11.25,8.834C9.823,8.834,8.667,9.991,8.667,11.417C8.667,12.843,9.823,14,11.25,14ZM24.251,16.25L19.334000000000003,11.333L12.417000000000003,18.25L10.5,16.333L7.748,19.084999999999997V24.249999999999996H24.251V16.25Z" stroke-width="3" stroke-linejoin="round" opacity="0" transform="matrix(1,0,0,1,4,4)"></path><path style="" fill="#333333" stroke="none" d="M2.5,4.833V27.167H29.5V4.833H2.5ZM25.25,25.25H6.75V6.75H25.25V25.25ZM11.25,14C12.676,14,13.833,12.843,13.833,11.417C13.833,9.99,12.676,8.834,11.25,8.834C9.823,8.834,8.667,9.991,8.667,11.417C8.667,12.843,9.823,14,11.25,14ZM24.251,16.25L19.334000000000003,11.333L12.417000000000003,18.25L10.5,16.333L7.748,19.084999999999997V24.249999999999996H24.251V16.25Z" transform="matrix(1,0,0,1,4,4)"></path><rect x="0" y="0" width="32" height="32" r="0" rx="0" ry="0" fill="#000000" stroke="#000" style="opacity: 0; " opacity="0"></rect></svg>