<svg height="40" version="1.1" width="40" xmlns="http://www.w3.org/2000/svg" style="overflow-x: hidden; overflow-y: hidden; position: absolute; left: 443px; top: 517px; "><desc>Created with Raphaël 2.1.0</desc><defs></defs><path style="stroke-linejoin: round; opacity: 0; " fill="none" stroke="#ffffff" d="M26.679,7.858C26.503,7.72,26.275,7.688,26.072999999999997,7.7749999999999995L16.412999999999997,11.957999999999998C15.992999999999997,12.140999999999998,15.466999999999997,12.229,14.926999999999996,12.229C14.173999999999996,12.231,13.394999999999996,12.056,12.851999999999997,11.816999999999998C12.657999999999996,11.733999999999998,12.495999999999997,11.640999999999998,12.380999999999997,11.557999999999998C12.422999999999996,11.536999999999997,12.470999999999997,11.515999999999998,12.526999999999997,11.493999999999998L21.312999999999995,7.689999999999998L22.622999999999994,8.250999999999998V6.612C22.622999999999994,6.368,22.516999999999992,6.1370000000000005,22.339999999999993,6C22.163999999999994,5.862,21.933999999999994,5.83,21.734999999999992,5.917L12.074999999999992,10.1C11.776999999999992,10.221,11.520999999999992,10.368,11.303999999999991,10.583C11.090999999999992,10.791,10.906999999999991,11.135,10.909999999999991,11.517C10.909999999999991,11.527,10.912999999999991,11.543999999999999,10.912999999999991,11.543999999999999V26.274C10.912999999999991,26.28,10.91099999999999,26.286,10.91099999999999,26.293C10.91099999999999,26.298,10.912999999999991,26.3,10.912999999999991,26.305V26.32H10.914999999999992C10.935999999999993,26.835,11.194999999999991,27.163,11.442999999999993,27.395C12.223999999999993,28.083,13.533999999999992,28.468,14.926999999999992,28.488C15.586999999999993,28.488,16.25699999999999,28.387999999999998,16.877999999999993,28.122L26.539999999999992,23.938C26.79499999999999,23.828999999999997,26.961999999999993,23.555,26.961999999999993,23.246V8.471C26.961,8.227,26.855,7.996,26.679,7.858ZM20.553,5.058C20.536,4.837,20.445,4.629,20.282,4.502C20.106,4.364,19.878,4.332,19.676,4.419L10.015999999999998,8.602C9.596,8.784,9.069,8.873,8.53,8.873C7.777,8.874,6.998,8.699,6.455,8.46C6.262,8.378,6.099,8.285,5.984,8.202C6.026,8.181,6.075,8.16,6.13,8.138L14.917000000000002,4.334L16.226000000000003,4.895V3.256C16.226000000000003,3.0119999999999996,16.12,2.7809999999999997,15.943000000000003,2.6439999999999997C15.767000000000003,2.506,15.536000000000003,2.4739999999999998,15.337000000000003,2.5609999999999995L5.677000000000003,6.744C5.379,6.864,5.124,7.011,4.907,7.227C4.693,7.435,4.51,7.779,4.513,8.161C4.513,8.171999999999999,4.516,8.187999999999999,4.516,8.187999999999999V22.918C4.516,22.924,4.515,22.931,4.515,22.936999999999998C4.515,22.941999999999997,4.516,22.944,4.516,22.948999999999998V22.964999999999996H4.518C4.539,23.479999999999997,4.798,23.807999999999996,5.045999999999999,24.039999999999996C5.826999999999999,24.727999999999994,7.137,25.111999999999995,8.530999999999999,25.131999999999994C8.906999999999998,25.131999999999994,9.284999999999998,25.086999999999993,9.656999999999998,25.009999999999994V11.544C9.646999999999998,10.844000000000001,9.926999999999998,10.172,10.418999999999999,9.688C10.738,9.373000000000001,11.126999999999999,9.124,11.608999999999998,8.932L20.553,5.058Z" stroke-width="3" stroke-linejoin="round" opacity="0" transform="matrix(1,0,0,1,4,4)"></path><path style="" fill="#333333" stroke="none" d="M26.679,7.858C26.503,7.72,26.275,7.688,26.072999999999997,7.7749999999999995L16.412999999999997,11.957999999999998C15.992999999999997,12.140999999999998,15.466999999999997,12.229,14.926999999999996,12.229C14.173999999999996,12.231,13.394999999999996,12.056,12.851999999999997,11.816999999999998C12.657999999999996,11.733999999999998,12.495999999999997,11.640999999999998,12.380999999999997,11.557999999999998C12.422999999999996,11.536999999999997,12.470999999999997,11.515999999999998,12.526999999999997,11.493999999999998L21.312999999999995,7.689999999999998L22.622999999999994,8.250999999999998V6.612C22.622999999999994,6.368,22.516999999999992,6.1370000000000005,22.339999999999993,6C22.163999999999994,5.862,21.933999999999994,5.83,21.734999999999992,5.917L12.074999999999992,10.1C11.776999999999992,10.221,11.520999999999992,10.368,11.303999999999991,10.583C11.090999999999992,10.791,10.906999999999991,11.135,10.909999999999991,11.517C10.909999999999991,11.527,10.912999999999991,11.543999999999999,10.912999999999991,11.543999999999999V26.274C10.912999999999991,26.28,10.91099999999999,26.286,10.91099999999999,26.293C10.91099999999999,26.298,10.912999999999991,26.3,10.912999999999991,26.305V26.32H10.914999999999992C10.935999999999993,26.835,11.194999999999991,27.163,11.442999999999993,27.395C12.223999999999993,28.083,13.533999999999992,28.468,14.926999999999992,28.488C15.586999999999993,28.488,16.25699999999999,28.387999999999998,16.877999999999993,28.122L26.539999999999992,23.938C26.79499999999999,23.828999999999997,26.961999999999993,23.555,26.961999999999993,23.246V8.471C26.961,8.227,26.855,7.996,26.679,7.858ZM20.553,5.058C20.536,4.837,20.445,4.629,20.282,4.502C20.106,4.364,19.878,4.332,19.676,4.419L10.015999999999998,8.602C9.596,8.784,9.069,8.873,8.53,8.873C7.777,8.874,6.998,8.699,6.455,8.46C6.262,8.378,6.099,8.285,5.984,8.202C6.026,8.181,6.075,8.16,6.13,8.138L14.917000000000002,4.334L16.226000000000003,4.895V3.256C16.226000000000003,3.0119999999999996,16.12,2.7809999999999997,15.943000000000003,2.6439999999999997C15.767000000000003,2.506,15.536000000000003,2.4739999999999998,15.337000000000003,2.5609999999999995L5.677000000000003,6.744C5.379,6.864,5.124,7.011,4.907,7.227C4.693,7.435,4.51,7.779,4.513,8.161C4.513,8.171999999999999,4.516,8.187999999999999,4.516,8.187999999999999V22.918C4.516,22.924,4.515,22.931,4.515,22.936999999999998C4.515,22.941999999999997,4.516,22.944,4.516,22.948999999999998V22.964999999999996H4.518C4.539,23.479999999999997,4.798,23.807999999999996,5.045999999999999,24.039999999999996C5.826999999999999,24.727999999999994,7.137,25.111999999999995,8.530999999999999,25.131999999999994C8.906999999999998,25.131999999999994,9.284999999999998,25.086999999999993,9.656999999999998,25.009999999999994V11.544C9.646999999999998,10.844000000000001,9.926999999999998,10.172,10.418999999999999,9.688C10.738,9.373000000000001,11.126999999999999,9.124,11.608999999999998,8.932L20.553,5.058Z" transform="matrix(1,0,0,1,4,4)"></path><rect x="0" y="0" width="32" height="32" r="0" rx="0" ry="0" fill="#000000" stroke="#000" style="opacity: 0; " opacity="0"></rect></svg>