<svg height="40" version="1.1" width="40" xmlns="http://www.w3.org/2000/svg" style="overflow-x: hidden; overflow-y: hidden; position: absolute; left: 406px; top: 184px; "><desc>Created with Raphaël 2.1.0</desc><defs></defs><path style="stroke-linejoin: round; opacity: 0; " fill="none" stroke="#ffffff" d="M20.771,12.364C20.771,12.364,21.62,8.854000000000001,20.771,7.665000000000001C19.921,6.476000000000001,19.582,5.684000000000001,17.713,5.117000000000001S16.525000000000002,4.663000000000001,15.166,4.721000000000001C13.807,4.778000000000001,12.674,5.513000000000001,12.674,5.909000000000001C12.674,5.909000000000001,11.825,5.966000000000001,11.485999999999999,6.306000000000001C11.145999999999999,6.646000000000001,10.579999999999998,8.23,10.579999999999998,8.627S10.862999999999998,11.685,11.145999999999999,12.251000000000001L10.809,12.364C10.526,15.647,11.940999999999999,16.044,11.940999999999999,16.044C12.45,19.102,12.959999999999999,17.8,12.959999999999999,18.592S12.45,19.102,12.45,19.102S11.998,20.347,10.866,20.8C9.734,21.252000000000002,3.4499999999999993,23.686,2.939,24.196C2.428,24.707,2.486,27.084000000000003,2.486,27.084000000000003H29.433C29.433,27.084000000000003,29.492,24.707000000000004,28.980999999999998,24.196000000000005C28.468999999999998,23.685000000000006,22.185,21.252000000000006,21.052999999999997,20.800000000000004C19.920999999999996,20.347000000000005,19.468999999999998,19.102000000000004,19.468999999999998,19.102000000000004S18.958999999999996,19.384000000000004,18.958999999999996,18.592000000000002S19.468999999999998,19.102000000000004,19.978999999999996,16.044000000000004C19.978999999999996,16.044000000000004,21.392999999999997,15.647000000000004,21.110999999999997,12.364000000000004H20.771Z" stroke-width="3" stroke-linejoin="round" opacity="0" transform="matrix(1,0,0,1,4,4)"></path><path style="" fill="#333333" stroke="none" d="M20.771,12.364C20.771,12.364,21.62,8.854000000000001,20.771,7.665000000000001C19.921,6.476000000000001,19.582,5.684000000000001,17.713,5.117000000000001S16.525000000000002,4.663000000000001,15.166,4.721000000000001C13.807,4.778000000000001,12.674,5.513000000000001,12.674,5.909000000000001C12.674,5.909000000000001,11.825,5.966000000000001,11.485999999999999,6.306000000000001C11.145999999999999,6.646000000000001,10.579999999999998,8.23,10.579999999999998,8.627S10.862999999999998,11.685,11.145999999999999,12.251000000000001L10.809,12.364C10.526,15.647,11.940999999999999,16.044,11.940999999999999,16.044C12.45,19.102,12.959999999999999,17.8,12.959999999999999,18.592S12.45,19.102,12.45,19.102S11.998,20.347,10.866,20.8C9.734,21.252000000000002,3.4499999999999993,23.686,2.939,24.196C2.428,24.707,2.486,27.084000000000003,2.486,27.084000000000003H29.433C29.433,27.084000000000003,29.492,24.707000000000004,28.980999999999998,24.196000000000005C28.468999999999998,23.685000000000006,22.185,21.252000000000006,21.052999999999997,20.800000000000004C19.920999999999996,20.347000000000005,19.468999999999998,19.102000000000004,19.468999999999998,19.102000000000004S18.958999999999996,19.384000000000004,18.958999999999996,18.592000000000002S19.468999999999998,19.102000000000004,19.978999999999996,16.044000000000004C19.978999999999996,16.044000000000004,21.392999999999997,15.647000000000004,21.110999999999997,12.364000000000004H20.771Z" transform="matrix(1,0,0,1,4,4)"></path><rect x="0" y="0" width="32" height="32" r="0" rx="0" ry="0" fill="#000000" stroke="#000" style="opacity: 0; " opacity="0"></rect></svg>