<svg xmlns="http://www.w3.org/2000/svg" version="1.1" height="88" width="88"><g id="phylota_ti9436_cl6_db184" transform="translate(41.800000000000004 44)"><path vector-effect="non-scaling-stroke" stroke-linecap="square" style="stroke:black;stroke-width:1;" d="M 26.417759672975905 0 14.806504653819571 0"></path><path vector-effect="non-scaling-stroke" stroke-linecap="square" style="stroke:black;stroke-width:1;" d="M 23.37368970343115 9.681699277861549 13.679426597697017 5.666204022253349"></path><path vector-effect="non-scaling-stroke" stroke-linecap="square" style="stroke:black;stroke-width:1;" d="M 14.522001818688164 2.8886057608469615 4.315455233774214 0.8583974168709644"></path><path vector-effect="non-scaling-stroke" stroke-linecap="square" style="stroke:black;stroke-width:1;" fill="none" d="M 14.806504653819571 0 A 14.806504653819571 14.806504653819571 0  0  1 13.679426597697017 5.666204022253349"></path><path vector-effect="non-scaling-stroke" stroke-linecap="square" style="stroke:black;stroke-width:1;" d="M 21.113755758102176 21.113755758102172 3.238040597659673 3.2380405976596727"></path><path vector-effect="non-scaling-stroke" stroke-linecap="square" style="stroke:black;stroke-width:1;" d="M 12.094659735635737 29.199091566059582 4.044059217708811 9.763222610432537"></path><path vector-effect="non-scaling-stroke" stroke-linecap="square" style="stroke:black;stroke-width:1;" d="M 2.227889717021146e-15 36.38420022119504 9.082523607665157e-16 14.83288669678272"></path><path vector-effect="non-scaling-stroke" stroke-linecap="square" style="stroke:black;stroke-width:1;" d="M -11.672594033737113 28.180134824323414 -11.207576238094756 27.057482555338794"></path><path vector-effect="non-scaling-stroke" stroke-linecap="square" style="stroke:black;stroke-width:1;" d="M -20.84735529387578 20.847355293875783 -20.708900590871178 20.70890059087118"></path><path vector-effect="non-scaling-stroke" stroke-linecap="square" style="stroke:black;stroke-width:1;" d="M -16.270878787987158 24.35109095773327 -8.24071031848493 12.333094551101514"></path><path vector-effect="non-scaling-stroke" stroke-linecap="square" style="stroke:black;stroke-width:1;" fill="none" d="M -11.207576238094756 27.057482555338794 A 29.286808077446224 29.286808077446224 0  0  1 -20.708900590871178 20.70890059087118"></path><path vector-effect="non-scaling-stroke" stroke-linecap="square" style="stroke:black;stroke-width:1;" d="M -4.305759727527578 14.194187575497072 -3.4922298993456664 11.512339142187807"></path><path vector-effect="non-scaling-stroke" stroke-linecap="square" style="stroke:black;stroke-width:1;" fill="none" d="M 9.082523607665157e-16 14.83288669678272 A 14.83288669678272 14.83288669678272 0  0  1 -8.24071031848493 12.333094551101514"></path><path vector-effect="non-scaling-stroke" stroke-linecap="square" style="stroke:black;stroke-width:1;" d="M -32.63966539492759 13.519792077898794 -22.998535622112325 9.526305369399672"></path><path vector-effect="non-scaling-stroke" stroke-linecap="square" style="stroke:black;stroke-width:1;" d="M -33.66922849962736 4.123291291182949e-15 -24.89343557552116 3.048566619734284e-15"></path><path vector-effect="non-scaling-stroke" stroke-linecap="square" style="stroke:black;stroke-width:1;" d="M -24.41511519113727 4.856468362516174 -11.799202470683058 2.3470072966354807"></path><path vector-effect="non-scaling-stroke" stroke-linecap="square" style="stroke:black;stroke-width:1;" fill="none" d="M -22.998535622112325 9.526305369399672 A 24.89343557552116 24.89343557552116 0  0  1 -24.89343557552116 3.048566619734284e-15"></path><path vector-effect="non-scaling-stroke" stroke-linecap="square" style="stroke:black;stroke-width:1;" d="M -8.91391064244894 8.079097675673248 -7.830101788950056 7.096790589546647"></path><path vector-effect="non-scaling-stroke" stroke-linecap="square" style="stroke:black;stroke-width:1;" fill="none" d="M -3.4922298993456664 11.512339142187807 A 12.03036251301819 12.03036251301819 0  0  1 -11.799202470683058 2.3470072966354807"></path><path vector-effect="non-scaling-stroke" stroke-linecap="square" style="stroke:black;stroke-width:1;" d="M -2.3153821538385757 10.31086495784338 -2.038712961058339 9.07880109312749"></path><path vector-effect="non-scaling-stroke" stroke-linecap="square" style="stroke:black;stroke-width:1;" fill="none" d="M 4.044059217708811 9.763222610432537 A 10.567636003250525 10.567636003250525 0  0  1 -7.830101788950056 7.096790589546647"></path><path vector-effect="non-scaling-stroke" stroke-linecap="square" style="stroke:black;stroke-width:1;" d="M -26.797286117247783 -11.099799344556285 -8.596597518292155 -3.560827282339501"></path><path vector-effect="non-scaling-stroke" stroke-linecap="square" style="stroke:black;stroke-width:1;" d="M -8.259389118786158 4.285262093575722 -5.848471998797967 3.0343933433022756"></path><path vector-effect="non-scaling-stroke" stroke-linecap="square" style="stroke:black;stroke-width:1;" fill="none" d="M -2.038712961058339 9.07880109312749 A 9.30489010285238 9.30489010285238 0  0  1 -8.596597518292155 -3.560827282339501"></path><path vector-effect="non-scaling-stroke" stroke-linecap="square" style="stroke:black;stroke-width:1;" d="M -24.938361585229167 -24.938361585229156 -19.960473779194555 -19.96047377919455"></path><path vector-effect="non-scaling-stroke" stroke-linecap="square" style="stroke:black;stroke-width:1;" d="M -13.074604882586733 -31.564888430210328 -12.521101289173906 -30.228612548170833"></path><path vector-effect="non-scaling-stroke" stroke-linecap="square" style="stroke:black;stroke-width:1;" d="M -6.3567181498294585e-15 -34.60436186855537 -6.010422186617282e-15 -32.71921444780091"></path><path vector-effect="non-scaling-stroke" stroke-linecap="square" style="stroke:black;stroke-width:1;" d="M -6.383202082736249 -32.090523916759835 -6.264459814130957 -31.493566220415843"></path><path vector-effect="non-scaling-stroke" stroke-linecap="square" style="stroke:black;stroke-width:1;" fill="none" d="M -12.521101289173906 -30.228612548170833 A 32.71921444780091 32.71921444780091 0  0  1 -6.010422186617282e-15 -32.71921444780091"></path><path vector-effect="non-scaling-stroke" stroke-linecap="square" style="stroke:black;stroke-width:1;" d="M 12.932994203220305 -31.22301000750706 12.288179950754381 -29.66629069399236"></path><path vector-effect="non-scaling-stroke" stroke-linecap="square" style="stroke:black;stroke-width:1;" d="M 3.1473854281700393 -31.955940527687844 2.7668643711446252 -28.092445399635768"></path><path vector-effect="non-scaling-stroke" stroke-linecap="square" style="stroke:black;stroke-width:1;" fill="none" d="M -6.264459814130957 -31.493566220415843 A 32.110561658784164 32.110561658784164 0  0  1 12.288179950754381 -29.66629069399236"></path><path vector-effect="non-scaling-stroke" stroke-linecap="square" style="stroke:black;stroke-width:1;" d="M -9.509852350486906 -26.57825681363932 -6.578165436503953 -18.384740781496596"></path><path vector-effect="non-scaling-stroke" stroke-linecap="square" style="stroke:black;stroke-width:1;" fill="none" d="M -19.960473779194555 -19.96047377919455 A 28.228372729929482 28.228372729929482 0  0  1 2.7668643711446252 -28.092445399635768"></path><path vector-effect="non-scaling-stroke" stroke-linecap="square" style="stroke:black;stroke-width:1;" d="M 24.46594822784784 -24.46594822784785 13.807080685518558 -13.807080685518562"></path><path vector-effect="non-scaling-stroke" stroke-linecap="square" style="stroke:black;stroke-width:1;" d="M 4.278206038509183 -19.051716647192265 1.4436122932162454 -6.428697475342574"></path><path vector-effect="non-scaling-stroke" stroke-linecap="square" style="stroke:black;stroke-width:1;" fill="none" d="M -6.578165436503953 -18.384740781496596 A 19.526160762239957 19.526160762239957 0  0  1 13.807080685518558 -13.807080685518562"></path><path vector-effect="non-scaling-stroke" stroke-linecap="square" style="stroke:black;stroke-width:1;" d="M -5.2190247381042845 -4.021684779499328 -3.627278542948492 -2.7951143440027435"></path><path vector-effect="non-scaling-stroke" stroke-linecap="square" style="stroke:black;stroke-width:1;" fill="none" d="M -5.848471998797967 3.0343933433022756 A 6.588791063814442 6.588791063814442 0  0  1 1.4436122932162454 -6.428697475342574"></path><path vector-effect="non-scaling-stroke" stroke-linecap="square" style="stroke:black;stroke-width:1;" d="M -3.022849017407183 3.4397961628772205 -2.904503105096649 3.305126580402621"></path><path vector-effect="non-scaling-stroke" stroke-linecap="square" style="stroke:black;stroke-width:1;" fill="none" d="M 3.238040597659673 3.2380405976596727 A 4.579280928724992 4.579280928724992 0  0  1 -3.627278542948492 -2.7951143440027435"></path><path vector-effect="non-scaling-stroke" stroke-linecap="square" style="stroke:black;stroke-width:1;" d="M 40.65069943049661 -16.83807102406398 4.065069943049661 -1.6838071024063979"></path><path vector-effect="non-scaling-stroke" stroke-linecap="square" style="stroke:black;stroke-width:1;" fill="none" d="M 4.315455233774214 0.8583974168709644 A 4.4 4.4 0  1  1 4.065069943049661 -1.6838071024063979"></path><path vector-effect="non-scaling-stroke" stroke-linecap="square" style="stroke:black;stroke-width:1;" d="M -4.378812797357666 0.43127541745006964 0 0"></path></g></svg>