<svg height="40" version="1.1" width="40" xmlns="http://www.w3.org/2000/svg" style="overflow-x: hidden; overflow-y: hidden; position: absolute; left: 258px; top: 295px; "><desc>Created with Raphaël 2.1.0</desc><defs><linearGradient id="31390-_0050af-_002c62" x1="0" y1="1" x2="6.123233995736766e-17" y2="0" gradientTransform="matrix(1,0,0,1,-4,-4)"><stop offset="0%" stop-color="#0050af"></stop><stop offset="100%" stop-color="#002c62"></stop></linearGradient></defs><path style="stroke-linejoin: round; opacity: 0; " fill="none" stroke="#ffffff" d="M16,3.5C11.858,3.5,8.5,6.8580000000000005,8.5,11C8.5,15.143,16,29.121,16,29.121S23.5,15.143,23.5,11C23.5,6.858,20.143,3.5,16,3.5ZM16,14.584C14.021,14.584,12.416,12.98,12.416,11S14.021,7.416,16,7.416S19.584,9.021,19.584,11S17.979,14.584,16,14.584Z" stroke-width="3" stroke-linejoin="round" opacity="0" transform="matrix(1,0,0,1,4,4)"></path><path style="opacity: 1; fill-opacity: 1; " fill="#333333" stroke="none" d="M16,3.5C11.858,3.5,8.5,6.8580000000000005,8.5,11C8.5,15.143,16,29.121,16,29.121S23.5,15.143,23.5,11C23.5,6.858,20.143,3.5,16,3.5ZM16,14.584C14.021,14.584,12.416,12.98,12.416,11S14.021,7.416,16,7.416S19.584,9.021,19.584,11S17.979,14.584,16,14.584Z" transform="matrix(1,0,0,1,4,4)" opacity="1" fill-opacity="1"></path><rect x="0" y="0" width="32" height="32" r="0" rx="0" ry="0" fill="#000000" stroke="#000" style="opacity: 0; " opacity="0"></rect></svg>