<svg height="40" version="1.1" width="40" xmlns="http://www.w3.org/2000/svg" style="overflow-x: hidden; overflow-y: hidden; position: absolute; left: 73px; top: 332px; "><desc>Created with Raphaël 2.1.0</desc><defs></defs><path style="stroke-linejoin: round; opacity: 0; " fill="none" stroke="#ffffff" d="M6.63,21.796L1.508,26.917H27.250999999999998V1.175L6.63,21.796ZM18.702,10.48C18.888,10.297,19.182000000000002,10.297,19.366000000000003,10.48L20.526000000000003,11.639000000000001C20.710000000000004,11.822000000000001,20.712000000000003,12.119000000000002,20.528000000000002,12.302000000000001C20.436000000000003,12.393,20.315,12.439000000000002,20.196,12.439000000000002C20.075000000000003,12.439000000000002,19.956000000000003,12.393000000000002,19.866000000000003,12.302000000000001L18.702,11.143C18.519,10.96,18.519,10.664,18.702,10.48ZM17.101,12.084C17.285,11.901,17.581,11.901,17.762999999999998,12.084L19.918999999999997,14.238C20.102999999999998,14.421,20.102999999999998,14.718,19.920999999999996,14.899C19.828999999999997,14.991,19.707999999999995,15.037999999999998,19.586999999999996,15.037999999999998S19.346999999999998,14.991999999999999,19.256999999999998,14.900999999999998L17.101,12.746999999999998C16.917,12.564,16.917,12.267,17.101,12.084ZM15.497,13.685C15.681,13.502,15.977,13.502,16.161,13.685L17.321,14.846C17.505000000000003,15.029,17.503,15.326,17.319000000000003,15.509C17.227000000000004,15.601,17.108000000000004,15.647,16.989000000000004,15.647C16.868000000000006,15.647,16.749000000000006,15.601,16.657000000000004,15.509L15.497000000000003,14.349C15.314,14.166,15.314,13.868,15.497,13.685ZM13.896,15.288C14.08,15.105,14.376000000000001,15.107000000000001,14.56,15.290000000000001L15.718,16.449C15.901,16.633000000000003,15.901,16.929000000000002,15.718,17.112000000000002C15.626,17.204,15.506,17.250000000000004,15.386,17.250000000000004C15.267,17.250000000000004,15.145999999999999,17.204000000000004,15.053999999999998,17.112000000000002L13.895999999999999,15.951000000000002C13.713,15.767,13.713,15.471,13.896,15.288ZM12.293,16.892C12.475999999999999,16.708,12.771999999999998,16.708,12.956,16.892L15.11,19.044999999999998C15.293999999999999,19.229,15.293999999999999,19.526,15.11,19.709999999999997C15.017999999999999,19.801999999999996,14.899,19.848,14.78,19.848C14.658999999999999,19.848,14.538,19.802,14.446,19.709999999999997L12.293,17.554999999999996C12.11,17.371,12.11,17.075,12.293,16.892ZM10.302,24.515C10.211,24.608,10.09,24.654,9.969999999999999,24.654C9.850999999999999,24.654,9.732,24.608999999999998,9.639999999999999,24.517L7.485999999999999,22.364C7.301999999999999,22.181,7.301999999999999,21.885,7.485999999999999,21.701S7.964999999999999,21.517,8.148,21.701L10.302,23.854C10.485,24.036,10.485,24.332,10.302,24.515ZM10.912,21.918C10.819,22.011,10.698,22.057,10.579,22.057C10.459000000000001,22.057,10.339,22.011999999999997,10.249,21.919999999999998L9.087,20.758999999999997C8.903,20.575999999999997,8.903,20.279999999999998,9.087,20.098999999999997C9.270999999999999,19.913999999999998,9.567,19.911999999999995,9.751,20.095999999999997L10.911999999999999,21.257999999999996C11.095,21.438,11.095,21.735,10.912,21.918ZM12.513,20.316C12.421,20.407999999999998,12.302,20.454,12.181,20.454C12.062,20.454,11.941999999999998,20.408,11.85,20.316L10.690999999999999,19.156C10.507,18.971999999999998,10.507,18.676,10.690999999999999,18.491999999999997S11.171,18.31,11.354,18.493999999999996L12.513,19.654999999999998C12.696,19.838,12.696,20.135,12.513,20.316ZM22.25,21.917H13.58L22.25,13.247000000000002V21.917ZM22.13,10.7C22.04,10.792,21.919,10.838,21.8,10.838C21.679000000000002,10.838,21.558,10.792,21.466,10.7L20.306,9.540999999999999C20.122,9.357999999999999,20.122,9.062,20.306,8.877999999999998C20.488,8.694999999999999,20.785,8.694999999999999,20.968,8.877999999999998L22.128,10.036999999999999C22.312,10.221,22.313,10.517,22.13,10.7ZM24.726,10.092C24.634,10.184000000000001,24.512999999999998,10.229000000000001,24.394,10.229000000000001S24.154,10.184000000000001,24.064,10.092L21.91,7.938000000000001C21.726,7.755000000000001,21.726,7.457000000000001,21.91,7.274000000000001S22.392,7.093000000000001,22.574,7.276000000000001L24.728,9.43C24.911,9.613,24.909,9.91,24.726,10.092Z" stroke-width="3" stroke-linejoin="round" opacity="0" transform="matrix(1,0,0,1,4,4)"></path><path style="" fill="#333333" stroke="none" d="M6.63,21.796L1.508,26.917H27.250999999999998V1.175L6.63,21.796ZM18.702,10.48C18.888,10.297,19.182000000000002,10.297,19.366000000000003,10.48L20.526000000000003,11.639000000000001C20.710000000000004,11.822000000000001,20.712000000000003,12.119000000000002,20.528000000000002,12.302000000000001C20.436000000000003,12.393,20.315,12.439000000000002,20.196,12.439000000000002C20.075000000000003,12.439000000000002,19.956000000000003,12.393000000000002,19.866000000000003,12.302000000000001L18.702,11.143C18.519,10.96,18.519,10.664,18.702,10.48ZM17.101,12.084C17.285,11.901,17.581,11.901,17.762999999999998,12.084L19.918999999999997,14.238C20.102999999999998,14.421,20.102999999999998,14.718,19.920999999999996,14.899C19.828999999999997,14.991,19.707999999999995,15.037999999999998,19.586999999999996,15.037999999999998S19.346999999999998,14.991999999999999,19.256999999999998,14.900999999999998L17.101,12.746999999999998C16.917,12.564,16.917,12.267,17.101,12.084ZM15.497,13.685C15.681,13.502,15.977,13.502,16.161,13.685L17.321,14.846C17.505000000000003,15.029,17.503,15.326,17.319000000000003,15.509C17.227000000000004,15.601,17.108000000000004,15.647,16.989000000000004,15.647C16.868000000000006,15.647,16.749000000000006,15.601,16.657000000000004,15.509L15.497000000000003,14.349C15.314,14.166,15.314,13.868,15.497,13.685ZM13.896,15.288C14.08,15.105,14.376000000000001,15.107000000000001,14.56,15.290000000000001L15.718,16.449C15.901,16.633000000000003,15.901,16.929000000000002,15.718,17.112000000000002C15.626,17.204,15.506,17.250000000000004,15.386,17.250000000000004C15.267,17.250000000000004,15.145999999999999,17.204000000000004,15.053999999999998,17.112000000000002L13.895999999999999,15.951000000000002C13.713,15.767,13.713,15.471,13.896,15.288ZM12.293,16.892C12.475999999999999,16.708,12.771999999999998,16.708,12.956,16.892L15.11,19.044999999999998C15.293999999999999,19.229,15.293999999999999,19.526,15.11,19.709999999999997C15.017999999999999,19.801999999999996,14.899,19.848,14.78,19.848C14.658999999999999,19.848,14.538,19.802,14.446,19.709999999999997L12.293,17.554999999999996C12.11,17.371,12.11,17.075,12.293,16.892ZM10.302,24.515C10.211,24.608,10.09,24.654,9.969999999999999,24.654C9.850999999999999,24.654,9.732,24.608999999999998,9.639999999999999,24.517L7.485999999999999,22.364C7.301999999999999,22.181,7.301999999999999,21.885,7.485999999999999,21.701S7.964999999999999,21.517,8.148,21.701L10.302,23.854C10.485,24.036,10.485,24.332,10.302,24.515ZM10.912,21.918C10.819,22.011,10.698,22.057,10.579,22.057C10.459000000000001,22.057,10.339,22.011999999999997,10.249,21.919999999999998L9.087,20.758999999999997C8.903,20.575999999999997,8.903,20.279999999999998,9.087,20.098999999999997C9.270999999999999,19.913999999999998,9.567,19.911999999999995,9.751,20.095999999999997L10.911999999999999,21.257999999999996C11.095,21.438,11.095,21.735,10.912,21.918ZM12.513,20.316C12.421,20.407999999999998,12.302,20.454,12.181,20.454C12.062,20.454,11.941999999999998,20.408,11.85,20.316L10.690999999999999,19.156C10.507,18.971999999999998,10.507,18.676,10.690999999999999,18.491999999999997S11.171,18.31,11.354,18.493999999999996L12.513,19.654999999999998C12.696,19.838,12.696,20.135,12.513,20.316ZM22.25,21.917H13.58L22.25,13.247000000000002V21.917ZM22.13,10.7C22.04,10.792,21.919,10.838,21.8,10.838C21.679000000000002,10.838,21.558,10.792,21.466,10.7L20.306,9.540999999999999C20.122,9.357999999999999,20.122,9.062,20.306,8.877999999999998C20.488,8.694999999999999,20.785,8.694999999999999,20.968,8.877999999999998L22.128,10.036999999999999C22.312,10.221,22.313,10.517,22.13,10.7ZM24.726,10.092C24.634,10.184000000000001,24.512999999999998,10.229000000000001,24.394,10.229000000000001S24.154,10.184000000000001,24.064,10.092L21.91,7.938000000000001C21.726,7.755000000000001,21.726,7.457000000000001,21.91,7.274000000000001S22.392,7.093000000000001,22.574,7.276000000000001L24.728,9.43C24.911,9.613,24.909,9.91,24.726,10.092Z" transform="matrix(1,0,0,1,4,4)"></path><rect x="0" y="0" width="32" height="32" r="0" rx="0" ry="0" fill="#000000" stroke="#000" style="opacity: 0; " opacity="0"></rect></svg>