<svg height="40" version="1.1" width="40" xmlns="http://www.w3.org/2000/svg" style="overflow-x: hidden; overflow-y: hidden; position: absolute; left: 221px; top: 332px; "><desc>Created with Raphaël 2.1.0</desc><defs></defs><path style="stroke-linejoin: round; opacity: 0; " fill="none" stroke="#ffffff" d="M14.263,2.826H7.904L2.702,8.028V14.387L18.405,30.09L29.966,18.528L14.263,2.826ZM6.495,8.859C5.876,8.24,5.876,7.237,6.495,6.619C7.114,6,8.117,6,8.736,6.619C9.356,7.239,9.355,8.24,8.736,8.86C8.117,9.479,7.114,9.479,6.495,8.859Z" stroke-width="3" stroke-linejoin="round" opacity="0" transform="matrix(1,0,0,1,4,4)"></path><path style="" fill="#333333" stroke="none" d="M14.263,2.826H7.904L2.702,8.028V14.387L18.405,30.09L29.966,18.528L14.263,2.826ZM6.495,8.859C5.876,8.24,5.876,7.237,6.495,6.619C7.114,6,8.117,6,8.736,6.619C9.356,7.239,9.355,8.24,8.736,8.86C8.117,9.479,7.114,9.479,6.495,8.859Z" transform="matrix(1,0,0,1,4,4)"></path><rect x="0" y="0" width="32" height="32" r="0" rx="0" ry="0" fill="#000000" stroke="#000" style="opacity: 0; " opacity="0"></rect></svg>