<?xml version="1.0" ?>
	<svg xmlns:xlink="http://www.w3.org/1999/xlink" 
	xmlns="http://www.w3.org/2000/svg"
	width="300px" 
    height="600px" 
    ><g><style type="text/css">
<![CDATA[
	path {
		stroke: black;
		stroke-width:1;
		stroke-linecap:square;
	}
]]>
</style><path d="M 20 0 200 80" />
<path d="M 20 20 200 120" />
<path d="M 20 40 200 40" />
<path d="M 20 60 200 60" />
<path d="M 20 80 200 160" />
<path d="M 20 100 200 180" />
<path d="M 20 120 200 220" />
<path d="M 20 140 200 200" />
<path d="M 20 160 200 260" />
<path d="M 20 180 200 240" />
<path d="M 20 200 200 320" />
<path d="M 20 220 200 340" />
<path d="M 20 240 200 280" />
<path d="M 20 260 200 300" />
<path d="M 20 280 200 400" />
<path d="M 20 300 200 360" />
<path d="M 20 320 200 380" />
<path d="M 20 340 200 100" />
<path d="M 20 360 200 140" />
<path d="M 20 380 200 0" />
<path d="M 20 400 200 20" />
</g></svg>