<?xml version="1.0" encoding="UTF-8"?>
<svg xmlns="http://www.w3.org/2000/svg" xmlns:xlink="http://www.w3.org/1999/xlink" width="800px" height="400px"><style type="text/css"><![CDATA[path {
		stroke: #000;
		stroke-width:1;
		stroke-linecap:square;
		fill: none;
	}
	text {
		alignment-baseline:middle;
		font-family:sans-serif;
		font-size: 10px;
	}
	text:hover {
		font-weight:bold;
		}
	circle {
		stroke: black;
		fill:white;
		opacity:0.2;
		}
	circle:hover {opacity:1.0; }]]></style><g id="viewport"><g id="tree" display="inline"><path vector-effect="non-scaling-stroke" d="M 100 0 77.777777777778 0"/><path vector-effect="non-scaling-stroke" d="M 100 8.695652173913 88.888888888889 8.695652173913"/><path vector-effect="non-scaling-stroke" d="M 100 17.391304347826 88.888888888889 17.391304347826"/><path vector-effect="non-scaling-stroke" d="M 88.888888888889 13.04347826087 77.777777777778 13.04347826087"/><path vector-effect="non-scaling-stroke" d="M 88.888888888889 8.695652173913 88.888888888889 17.391304347826"/><path vector-effect="non-scaling-stroke" d="M 77.777777777778 6.5217391304348 11.111111111111 6.5217391304348"/><path vector-effect="non-scaling-stroke" d="M 77.777777777778 0 77.777777777778 13.04347826087"/><path vector-effect="non-scaling-stroke" d="M 100 26.086956521739 88.888888888889 26.086956521739"/><path vector-effect="non-scaling-stroke" d="M 100 34.782608695652 88.888888888889 34.782608695652"/><path vector-effect="non-scaling-stroke" d="M 88.888888888889 30.434782608696 66.666666666667 30.434782608696"/><path vector-effect="non-scaling-stroke" d="M 88.888888888889 26.086956521739 88.888888888889 34.782608695652"/><path vector-effect="non-scaling-stroke" d="M 100 43.478260869565 88.888888888889 43.478260869565"/><path vector-effect="non-scaling-stroke" d="M 100 52.173913043478 88.888888888889 52.173913043478"/><path vector-effect="non-scaling-stroke" d="M 88.888888888889 47.826086956522 77.777777777778 47.826086956522"/><path vector-effect="non-scaling-stroke" d="M 88.888888888889 43.478260869565 88.888888888889 52.173913043478"/><path vector-effect="non-scaling-stroke" d="M 100 60.869565217391 88.888888888889 60.869565217391"/><path vector-effect="non-scaling-stroke" d="M 100 69.565217391304 88.888888888889 69.565217391304"/><path vector-effect="non-scaling-stroke" d="M 88.888888888889 65.217391304348 77.777777777778 65.217391304348"/><path vector-effect="non-scaling-stroke" d="M 88.888888888889 60.869565217391 88.888888888889 69.565217391304"/><path vector-effect="non-scaling-stroke" d="M 77.777777777778 56.521739130435 66.666666666667 56.521739130435"/><path vector-effect="non-scaling-stroke" d="M 77.777777777778 47.826086956522 77.777777777778 65.217391304348"/><path vector-effect="non-scaling-stroke" d="M 66.666666666667 43.478260869565 55.555555555556 43.478260869565"/><path vector-effect="non-scaling-stroke" d="M 66.666666666667 30.434782608696 66.666666666667 56.521739130435"/><path vector-effect="non-scaling-stroke" d="M 100 78.260869565217 88.888888888889 78.260869565217"/><path vector-effect="non-scaling-stroke" d="M 100 86.95652173913 88.888888888889 86.95652173913"/><path vector-effect="non-scaling-stroke" d="M 88.888888888889 82.608695652174 77.777777777778 82.608695652174"/><path vector-effect="non-scaling-stroke" d="M 88.888888888889 78.260869565217 88.888888888889 86.95652173913"/><path vector-effect="non-scaling-stroke" d="M 100 95.652173913043 88.888888888889 95.652173913043"/><path vector-effect="non-scaling-stroke" d="M 100 104.34782608696 88.888888888889 104.34782608696"/><path vector-effect="non-scaling-stroke" d="M 88.888888888889 100 77.777777777778 100"/><path vector-effect="non-scaling-stroke" d="M 88.888888888889 95.652173913043 88.888888888889 104.34782608696"/><path vector-effect="non-scaling-stroke" d="M 77.777777777778 91.304347826087 55.555555555556 91.304347826087"/><path vector-effect="non-scaling-stroke" d="M 77.777777777778 82.608695652174 77.777777777778 100"/><path vector-effect="non-scaling-stroke" d="M 55.555555555556 67.391304347826 22.222222222222 67.391304347826"/><path vector-effect="non-scaling-stroke" d="M 55.555555555556 43.478260869565 55.555555555556 91.304347826087"/><path vector-effect="non-scaling-stroke" d="M 100 113.04347826087 66.666666666667 113.04347826087"/><path vector-effect="non-scaling-stroke" d="M 100 121.73913043478 77.777777777778 121.73913043478"/><path vector-effect="non-scaling-stroke" d="M 100 130.4347826087 77.777777777778 130.4347826087"/><path vector-effect="non-scaling-stroke" d="M 100 139.13043478261 77.777777777778 139.13043478261"/><path vector-effect="non-scaling-stroke" d="M 100 147.82608695652 88.888888888889 147.82608695652"/><path vector-effect="non-scaling-stroke" d="M 100 156.52173913043 88.888888888889 156.52173913043"/><path vector-effect="non-scaling-stroke" d="M 88.888888888889 152.17391304348 77.777777777778 152.17391304348"/><path vector-effect="non-scaling-stroke" d="M 88.888888888889 147.82608695652 88.888888888889 156.52173913043"/><path vector-effect="non-scaling-stroke" d="M 100 165.21739130435 88.888888888889 165.21739130435"/><path vector-effect="non-scaling-stroke" d="M 100 173.91304347826 88.888888888889 173.91304347826"/><path vector-effect="non-scaling-stroke" d="M 88.888888888889 169.5652173913 77.777777777778 169.5652173913"/><path vector-effect="non-scaling-stroke" d="M 88.888888888889 165.21739130435 88.888888888889 173.91304347826"/><path vector-effect="non-scaling-stroke" d="M 77.777777777778 145.65217391304 66.666666666667 145.65217391304"/><path vector-effect="non-scaling-stroke" d="M 77.777777777778 121.73913043478 77.777777777778 169.5652173913"/><path vector-effect="non-scaling-stroke" d="M 66.666666666667 129.34782608696 55.555555555556 129.34782608696"/><path vector-effect="non-scaling-stroke" d="M 66.666666666667 113.04347826087 66.666666666667 145.65217391304"/><path vector-effect="non-scaling-stroke" d="M 100 182.60869565217 88.888888888889 182.60869565217"/><path vector-effect="non-scaling-stroke" d="M 100 191.30434782609 88.888888888889 191.30434782609"/><path vector-effect="non-scaling-stroke" d="M 88.888888888889 186.95652173913 55.555555555556 186.95652173913"/><path vector-effect="non-scaling-stroke" d="M 88.888888888889 182.60869565217 88.888888888889 191.30434782609"/><path vector-effect="non-scaling-stroke" d="M 55.555555555556 158.15217391304 33.333333333333 158.15217391304"/><path vector-effect="non-scaling-stroke" d="M 55.555555555556 129.34782608696 55.555555555556 186.95652173913"/><path vector-effect="non-scaling-stroke" d="M 100 200 88.888888888889 200"/><path vector-effect="non-scaling-stroke" d="M 100 208.69565217391 88.888888888889 208.69565217391"/><path vector-effect="non-scaling-stroke" d="M 88.888888888889 204.34782608696 66.666666666667 204.34782608696"/><path vector-effect="non-scaling-stroke" d="M 88.888888888889 200 88.888888888889 208.69565217391"/><path vector-effect="non-scaling-stroke" d="M 100 217.39130434783 77.777777777778 217.39130434783"/><path vector-effect="non-scaling-stroke" d="M 100 226.08695652174 88.888888888889 226.08695652174"/><path vector-effect="non-scaling-stroke" d="M 100 234.78260869565 88.888888888889 234.78260869565"/><path vector-effect="non-scaling-stroke" d="M 88.888888888889 230.4347826087 77.777777777778 230.4347826087"/><path vector-effect="non-scaling-stroke" d="M 88.888888888889 226.08695652174 88.888888888889 234.78260869565"/><path vector-effect="non-scaling-stroke" d="M 77.777777777778 223.91304347826 66.666666666667 223.91304347826"/><path vector-effect="non-scaling-stroke" d="M 77.777777777778 217.39130434783 77.777777777778 230.4347826087"/><path vector-effect="non-scaling-stroke" d="M 100 243.47826086957 88.888888888889 243.47826086957"/><path vector-effect="non-scaling-stroke" d="M 100 252.17391304348 88.888888888889 252.17391304348"/><path vector-effect="non-scaling-stroke" d="M 88.888888888889 247.82608695652 66.666666666667 247.82608695652"/><path vector-effect="non-scaling-stroke" d="M 88.888888888889 243.47826086957 88.888888888889 252.17391304348"/><path vector-effect="non-scaling-stroke" d="M 66.666666666667 226.08695652174 55.555555555556 226.08695652174"/><path vector-effect="non-scaling-stroke" d="M 66.666666666667 204.34782608696 66.666666666667 247.82608695652"/><path vector-effect="non-scaling-stroke" d="M 100 260.86956521739 88.888888888889 260.86956521739"/><path vector-effect="non-scaling-stroke" d="M 100 269.5652173913 88.888888888889 269.5652173913"/><path vector-effect="non-scaling-stroke" d="M 100 278.26086956522 88.888888888889 278.26086956522"/><path vector-effect="non-scaling-stroke" d="M 100 286.95652173913 88.888888888889 286.95652173913"/><path vector-effect="non-scaling-stroke" d="M 88.888888888889 273.91304347826 77.777777777778 273.91304347826"/><path vector-effect="non-scaling-stroke" d="M 88.888888888889 260.86956521739 88.888888888889 286.95652173913"/><path vector-effect="non-scaling-stroke" d="M 100 295.65217391304 88.888888888889 295.65217391304"/><path vector-effect="non-scaling-stroke" d="M 100 304.34782608696 88.888888888889 304.34782608696"/><path vector-effect="non-scaling-stroke" d="M 88.888888888889 300 77.777777777778 300"/><path vector-effect="non-scaling-stroke" d="M 88.888888888889 295.65217391304 88.888888888889 304.34782608696"/><path vector-effect="non-scaling-stroke" d="M 77.777777777778 286.95652173913 55.555555555556 286.95652173913"/><path vector-effect="non-scaling-stroke" d="M 77.777777777778 273.91304347826 77.777777777778 300"/><path vector-effect="non-scaling-stroke" d="M 55.555555555556 256.52173913043 44.444444444444 256.52173913043"/><path vector-effect="non-scaling-stroke" d="M 55.555555555556 226.08695652174 55.555555555556 286.95652173913"/><path vector-effect="non-scaling-stroke" d="M 100 313.04347826087 88.888888888889 313.04347826087"/><path vector-effect="non-scaling-stroke" d="M 100 321.73913043478 88.888888888889 321.73913043478"/><path vector-effect="non-scaling-stroke" d="M 100 330.4347826087 88.888888888889 330.4347826087"/><path vector-effect="non-scaling-stroke" d="M 88.888888888889 321.73913043478 66.666666666667 321.73913043478"/><path vector-effect="non-scaling-stroke" d="M 88.888888888889 313.04347826087 88.888888888889 330.4347826087"/><path vector-effect="non-scaling-stroke" d="M 100 339.13043478261 77.777777777778 339.13043478261"/><path vector-effect="non-scaling-stroke" d="M 100 347.82608695652 88.888888888889 347.82608695652"/><path vector-effect="non-scaling-stroke" d="M 100 356.52173913043 88.888888888889 356.52173913043"/><path vector-effect="non-scaling-stroke" d="M 88.888888888889 352.17391304348 77.777777777778 352.17391304348"/><path vector-effect="non-scaling-stroke" d="M 88.888888888889 347.82608695652 88.888888888889 356.52173913043"/><path vector-effect="non-scaling-stroke" d="M 77.777777777778 345.65217391304 66.666666666667 345.65217391304"/><path vector-effect="non-scaling-stroke" d="M 77.777777777778 339.13043478261 77.777777777778 352.17391304348"/><path vector-effect="non-scaling-stroke" d="M 66.666666666667 333.69565217391 55.555555555556 333.69565217391"/><path vector-effect="non-scaling-stroke" d="M 66.666666666667 321.73913043478 66.666666666667 345.65217391304"/><path vector-effect="non-scaling-stroke" d="M 100 365.21739130435 88.888888888889 365.21739130435"/><path vector-effect="non-scaling-stroke" d="M 100 373.91304347826 88.888888888889 373.91304347826"/><path vector-effect="non-scaling-stroke" d="M 100 382.60869565217 88.888888888889 382.60869565217"/><path vector-effect="non-scaling-stroke" d="M 100 391.30434782609 88.888888888889 391.30434782609"/><path vector-effect="non-scaling-stroke" d="M 100 400 88.888888888889 400"/><path vector-effect="non-scaling-stroke" d="M 88.888888888889 382.60869565217 55.555555555556 382.60869565217"/><path vector-effect="non-scaling-stroke" d="M 88.888888888889 365.21739130435 88.888888888889 400"/><path vector-effect="non-scaling-stroke" d="M 55.555555555556 358.15217391304 44.444444444444 358.15217391304"/><path vector-effect="non-scaling-stroke" d="M 55.555555555556 333.69565217391 55.555555555556 382.60869565217"/><path vector-effect="non-scaling-stroke" d="M 44.444444444444 307.33695652174 33.333333333333 307.33695652174"/><path vector-effect="non-scaling-stroke" d="M 44.444444444444 256.52173913043 44.444444444444 358.15217391304"/><path vector-effect="non-scaling-stroke" d="M 33.333333333333 232.74456521739 22.222222222222 232.74456521739"/><path vector-effect="non-scaling-stroke" d="M 33.333333333333 158.15217391304 33.333333333333 307.33695652174"/><path vector-effect="non-scaling-stroke" d="M 22.222222222222 150.06793478261 11.111111111111 150.06793478261"/><path vector-effect="non-scaling-stroke" d="M 22.222222222222 67.391304347826 22.222222222222 232.74456521739"/><path vector-effect="non-scaling-stroke" d="M 11.111111111111 6.5217391304348 11.111111111111 150.06793478261"/><path vector-effect="non-scaling-stroke" d="M 11.111111111111 78.294836956522 0 78.294836956522"/></g><text x="100" y="0" text-anchor="start">Craugastor_tabasarae_MVUP_1720</text><path vector-effect="non-scaling-stroke" d="M 300 0 400 0"/><text x="100" y="8.695652173913" text-anchor="start">Craugastor_cf._longirostris_FMNH_257678</text><path vector-effect="non-scaling-stroke" d="M 300 8.695652173913 400 8.695652173913"/><text x="100" y="17.391304347826" text-anchor="start">Craugastor_cf._longirostris_FMNH_257561</text><path vector-effect="non-scaling-stroke" d="M 300 17.391304347826 400 34.782608695652"/><text x="100" y="26.086956521739" text-anchor="start">Craugastor_sp._A_FMNH_257689</text><path vector-effect="non-scaling-stroke" d="M 300 26.086956521739 400 17.391304347826"/><text x="100" y="34.782608695652" text-anchor="start">Craugastor_sp._A_FMNH_257562</text><path vector-effect="non-scaling-stroke" d="M 300 34.782608695652 400 26.086956521739"/><text x="100" y="43.478260869565" text-anchor="start">Craugastor_sp._A_USNM_563039</text><path vector-effect="non-scaling-stroke" d="M 300 43.478260869565 400 121.73913043478"/><text x="100" y="52.173913043478" text-anchor="start">Craugastor_sp._A_USNM_563040</text><path vector-effect="non-scaling-stroke" d="M 300 52.173913043478 400 130.4347826087"/><text x="100" y="60.869565217391" text-anchor="start">Craugastor_sp._A_AJC_0890</text><path vector-effect="non-scaling-stroke" d="M 300 60.869565217391 400 113.04347826087"/><text x="100" y="69.565217391304" text-anchor="start">Craugastor_sp._A_AJC_0891</text><path vector-effect="non-scaling-stroke" d="M 300 69.565217391304 400 139.13043478261"/><text x="100" y="78.260869565217" text-anchor="start">Craugastor_stejnegerianus_UCR_16332</text><path vector-effect="non-scaling-stroke" d="M 300 78.260869565217 400 147.82608695652"/><text x="100" y="86.95652173913" text-anchor="start">Craugastor_bransfordii_MVUP_1875</text><path vector-effect="non-scaling-stroke" d="M 300 86.95652173913 400 156.52173913043"/><text x="100" y="95.652173913043" text-anchor="start">Craugastor_underwoodi_UCR_16315</text><path vector-effect="non-scaling-stroke" d="M 300 95.652173913043 400 321.73913043478"/><text x="100" y="104.34782608696" text-anchor="start">Craugastor_underwoodi_USNM_561403</text><path vector-effect="non-scaling-stroke" d="M 300 104.34782608696 400 400"/><text x="100" y="113.04347826087" text-anchor="start">Craugastor_cf._podiciferus_FMNH_257758</text><path vector-effect="non-scaling-stroke" d="M 300 113.04347826087 400 69.565217391304"/><text x="100" y="121.73913043478" text-anchor="start">Craugastor_cf._podiciferus_FMNH_257755</text><path vector-effect="non-scaling-stroke" d="M 300 121.73913043478 400 43.478260869565"/><text x="100" y="130.4347826087" text-anchor="start">Craugastor_cf._podiciferus_FMNH_257756</text><path vector-effect="non-scaling-stroke" d="M 300 130.4347826087 400 52.173913043478"/><text x="100" y="139.13043478261" text-anchor="start">Craugastor_cf._podiciferus_FMNH_257757</text><path vector-effect="non-scaling-stroke" d="M 300 139.13043478261 400 60.869565217391"/><text x="100" y="147.82608695652" text-anchor="start">Craugastor_cf._podiciferus_FMNH_257550</text><path vector-effect="non-scaling-stroke" d="M 300 147.82608695652 400 78.260869565217"/><text x="100" y="156.52173913043" text-anchor="start">Craugastor_cf._podiciferus_FMNH_257653</text><path vector-effect="non-scaling-stroke" d="M 300 156.52173913043 400 86.95652173913"/><text x="100" y="165.21739130435" text-anchor="start">Craugastor_cf._podiciferus_FMNH_257652</text><path vector-effect="non-scaling-stroke" d="M 300 165.21739130435 400 95.652173913043"/><text x="100" y="173.91304347826" text-anchor="start">Craugastor_cf._podiciferus_FMNH_257651</text><path vector-effect="non-scaling-stroke" d="M 300 173.91304347826 400 104.34782608696"/><text x="100" y="182.60869565217" text-anchor="start">Craugastor_cf._podiciferus_UCR_16360</text><path vector-effect="non-scaling-stroke" d="M 300 182.60869565217 400 165.21739130435"/><text x="100" y="191.30434782609" text-anchor="start">Craugastor_cf._podiciferus_UCR_16359</text><path vector-effect="non-scaling-stroke" d="M 300 191.30434782609 400 173.91304347826"/><text x="100" y="200" text-anchor="start">Craugastor_cf._podiciferus_FMNH_257595</text><path vector-effect="non-scaling-stroke" d="M 300 200 400 182.60869565217"/><text x="100" y="208.69565217391" text-anchor="start">Craugastor_cf._podiciferus_FMNH_257596</text><path vector-effect="non-scaling-stroke" d="M 300 208.69565217391 400 191.30434782609"/><text x="100" y="217.39130434783" text-anchor="start">Craugastor_cf._podiciferus_UCR_16356</text><path vector-effect="non-scaling-stroke" d="M 300 217.39130434783 400 200"/><text x="100" y="226.08695652174" text-anchor="start">Craugastor_cf._podiciferus_UCR_16357</text><path vector-effect="non-scaling-stroke" d="M 300 226.08695652174 400 208.69565217391"/><text x="100" y="234.78260869565" text-anchor="start">Craugastor_cf._podiciferus_UCR_16358</text><path vector-effect="non-scaling-stroke" d="M 300 234.78260869565 400 217.39130434783"/><text x="100" y="243.47826086957" text-anchor="start">Craugastor_cf._podiciferus_UCR_17462</text><path vector-effect="non-scaling-stroke" d="M 300 243.47826086957 400 243.47826086957"/><text x="100" y="252.17391304348" text-anchor="start">Craugastor_cf._podiciferus_UCR_17469</text><path vector-effect="non-scaling-stroke" d="M 300 252.17391304348 400 278.26086956522"/><text x="100" y="260.86956521739" text-anchor="start">Craugastor_cf._podiciferus_UCR_17439</text><path vector-effect="non-scaling-stroke" d="M 300 260.86956521739 400 234.78260869565"/><text x="100" y="269.5652173913" text-anchor="start">Craugastor_cf._podiciferus_UCR_17441</text><path vector-effect="non-scaling-stroke" d="M 300 269.5652173913 400 252.17391304348"/><text x="100" y="278.26086956522" text-anchor="start">Craugastor_cf._podiciferus_UCR_17442</text><path vector-effect="non-scaling-stroke" d="M 300 278.26086956522 400 260.86956521739"/><text x="100" y="286.95652173913" text-anchor="start">Craugastor_cf._podiciferus_UCR_17443</text><path vector-effect="non-scaling-stroke" d="M 300 286.95652173913 400 269.5652173913"/><text x="100" y="295.65217391304" text-anchor="start">Craugastor_cf._podiciferus_MVZ_164825</text><path vector-effect="non-scaling-stroke" d="M 300 295.65217391304 400 226.08695652174"/><text x="100" y="304.34782608696" text-anchor="start">Craugastor_cf._podiciferus_UCR_18062</text><path vector-effect="non-scaling-stroke" d="M 300 304.34782608696 400 286.95652173913"/><text x="100" y="313.04347826087" text-anchor="start">Craugastor_cf._podiciferus_UCR_16353</text><path vector-effect="non-scaling-stroke" d="M 300 313.04347826087 400 295.65217391304"/><text x="100" y="321.73913043478" text-anchor="start">Craugastor_cf._podiciferus_UCR_16355</text><path vector-effect="non-scaling-stroke" d="M 300 321.73913043478 400 304.34782608696"/><text x="100" y="330.4347826087" text-anchor="start">Craugastor_cf._podiciferus_UCR_16354</text><path vector-effect="non-scaling-stroke" d="M 300 330.4347826087 400 313.04347826087"/><text x="100" y="339.13043478261" text-anchor="start">Craugastor_cf._podiciferus_UTA_A_52449</text><path vector-effect="non-scaling-stroke" d="M 300 339.13043478261 400 339.13043478261"/><text x="100" y="347.82608695652" text-anchor="start">Craugastor_cf._podiciferus_FMNH_257673</text><path vector-effect="non-scaling-stroke" d="M 300 347.82608695652 400 347.82608695652"/><text x="100" y="356.52173913043" text-anchor="start">Craugastor_cf._podiciferus_FMNH_257671</text><path vector-effect="non-scaling-stroke" d="M 300 356.52173913043 400 365.21739130435"/><text x="100" y="365.21739130435" text-anchor="start">Craugastor_cf._podiciferus_UCR_16361</text><path vector-effect="non-scaling-stroke" d="M 300 365.21739130435 400 330.4347826087"/><text x="100" y="373.91304347826" text-anchor="start">Craugastor_cf._podiciferus_FMNH_257672</text><path vector-effect="non-scaling-stroke" d="M 300 373.91304347826 400 356.52173913043"/><text x="100" y="382.60869565217" text-anchor="start">Craugastor_cf._podiciferus_FMNH_257669</text><path vector-effect="non-scaling-stroke" d="M 300 382.60869565217 400 373.91304347826"/><text x="100" y="391.30434782609" text-anchor="start">Craugastor_cf._podiciferus_FMNH_257670</text><path vector-effect="non-scaling-stroke" d="M 300 391.30434782609 400 382.60869565217"/><text x="100" y="400" text-anchor="start">Craugastor_cf._podiciferus_MVZ_149813</text><path vector-effect="non-scaling-stroke" d="M 300 400 400 391.30434782609"/></g></svg>
