<?xml version="1.0" encoding="UTF-8" standalone="no"?>
<svg
   xmlns:dc="http://purl.org/dc/elements/1.1/"
   xmlns:cc="http://creativecommons.org/ns#"
   xmlns:rdf="http://www.w3.org/1999/02/22-rdf-syntax-ns#"
   xmlns:svg="http://www.w3.org/2000/svg"
   xmlns="http://www.w3.org/2000/svg"
   xmlns:sodipodi="http://sodipodi.sourceforge.net/DTD/sodipodi-0.dtd"
   xmlns:inkscape="http://www.inkscape.org/namespaces/inkscape"
   version="1.0"
   width="168.02002"
   height="162.98544"
   viewBox="0 0 134.41602 130.38835"
   preserveAspectRatio="xMidYMid meet"
   id="svg2"
   inkscape:version="0.48.1 r9760"
   sodipodi:docname="gbif-colour.svg">
  <defs
     id="defs16" />
  <sodipodi:namedview
     pagecolor="#ffffff"
     bordercolor="#666666"
     borderopacity="1"
     objecttolerance="10"
     gridtolerance="10"
     guidetolerance="10"
     inkscape:pageopacity="0"
     inkscape:pageshadow="2"
     inkscape:window-width="1036"
     inkscape:window-height="692"
     id="namedview14"
     showgrid="false"
     inkscape:zoom="1.8366667"
     inkscape:cx="53.551764"
     inkscape:cy="49.207966"
     inkscape:window-x="15"
     inkscape:window-y="72"
     inkscape:window-maximized="0"
     inkscape:current-layer="svg2"
     showguides="true"
     inkscape:guide-bbox="true"
     fit-margin-top="0"
     fit-margin-left="0"
     fit-margin-right="0"
     fit-margin-bottom="0" />
  <metadata
     id="metadata4">
Created by potrace 1.11, written by Peter Selinger 2001-2013
<rdf:RDF>
  <cc:Work
     rdf:about="">
    <dc:format>image/svg+xml</dc:format>
    <dc:type
       rdf:resource="http://purl.org/dc/dcmitype/StillImage" />
    <dc:title />
  </cc:Work>
</rdf:RDF>
</metadata>
  <path
     style="fill:#04b134;fill-opacity:1;stroke:none"
     inkscape:connector-curvature="0"
     id="path8"
     d="m 40.116015,1.5323826 c -0.6,1.4 -1.9,4.7 -3,7.5 -5.5,13.9000004 -7.5,40.9000004 -3.9,54.0000004 0.9,3.2 1.5,6.1 1.3,6.3 -0.2,0.2 -3.5,1 -7.3,1.7 -9.3,2 -18.7999997,7.1 -23.5999997,12.7 -2.1,2.6 -3.80000002,5.1 -3.60000002,5.7 0.2,0.6 2.40000002,-0.3 4.80000002,-2 6.2999997,-4.1 14.1999997,-6.3 20.8999997,-5.6 9.4,1 17.1,5.6 30.3,18.299997 18.6,17.9 28.9,24.5 44.300005,28.4 8.9,2.2 21.1,2.5 29.1,0.6 l 5,-1.1 -0.1,-6.3 c -0.1,-5 -0.8,-7.6 -3.8,-13.6 -9.6,-19.599997 -37.200005,-34.199997 -71.400005,-37.799997 l -11.3,-1.2 0.6,-2.6 c 4.2,-16.6 3,-38.5 -3.1,-57.0000004 -3.3,-10.00000004 -4,-11.1 -5.2,-8 z" />
  <path
     style="fill:#75ca67;fill-opacity:1;stroke:none"
     inkscape:connector-curvature="0"
     id="path10"
     d="m 86.216015,27.432383 c -12.1,4.1 -19.2,14 -19.3,26.9 l 0,3.2 4.3,-0.6 c 16,-2.2 26,-11.7 28.2,-26.7 l 0.700005,-4.7 -4.300005,0 c -2.4,0.1 -6.7,0.9 -9.6,1.9 z" />
  <text
     xml:space="preserve"
     style="font-size:24.00000078px;font-style:normal;font-variant:normal;font-weight:normal;font-stretch:normal;text-align:start;line-height:125%;letter-spacing:0px;word-spacing:0px;writing-mode:lr;text-anchor:start;fill:#000000;fill-opacity:1;stroke:none;font-family:Sans;-inkscape-font-specification:Sans"
     x="-0.43556947"
     y="129.95279"
     id="text2994"
     sodipodi:linespacing="125%"><tspan
       sodipodi:role="line"
       id="tspan2996"
       x="-0.43556947"
       y="129.95279">GBIF</tspan></text>
</svg>
